<svg width="121" height="45" viewBox="0 0 121 45" fill="none" xmlns="http://www.w3.org/2000/svg">
<path d="M8.8125 44.5937C12.5859 44.5937 16.1484 42.7356 18.8437 40.8775C20.3906 39.7859 21.8437 38.5549 23.2265 37.1382L20.2031 34.0259C17.7656 36.3717 12.9375 39.6697 9.1875 39.6697C7.99218 39.6697 7.19532 39.2518 6.23438 37.5562C11.6953 36.0697 15.7265 31.9588 15.7265 28.1265C15.7265 24.6195 13.0547 22.32 9.5625 22.32C3.14062 22.32 0 29.6595 0 34.9085C0 40.0414 2.92968 44.5937 8.8125 44.5937ZM5.69531 33.6775C5.69531 31.6104 6.07031 26.7562 10.0781 26.7562C10.8281 26.7562 11.414 27.7549 11.414 29.1485C11.414 31.0994 7.92188 33.6775 5.69531 33.6775ZM27.0781 25.6414C31.4375 20.3923 36.3594 13.5174 36.3594 7.64132C36.3594 3.43743 35.6328 0 30.875 0C24.5234 0 20.7968 16.6994 19.2968 25.804C18.5468 30.3562 18.1484 34.0955 17.8906 36.813C17.75 38.3924 17.6562 39.8092 17.6094 41.0633C18.7344 41.7369 19.9062 42.3175 21.1484 42.8286C23.2812 43.7343 26 44.5937 28.6484 44.5937H29.2344C29.8203 44.3614 30.3828 44.1291 30.8984 43.8736C31.8125 43.4324 32.8203 42.8982 33.3594 42.364C37.7656 41.3653 41.0234 39.995 44.4687 36.9059L42.664 33.0736C40.1797 35.5356 37.8828 36.5808 35.6094 37.9046C37.4609 35.071 37.8594 32.6556 37.8594 29.5201C37.8594 25.7575 35.6797 22.2968 32.0234 22.2968C30.5937 22.2968 29.2109 23.7368 27.4531 25.8968L27.0781 25.6414ZM29.5625 27.5924C32.0234 27.5924 32.6094 28.9627 32.6094 30.4955C32.6094 34.0492 31.25 40.1343 28.0156 40.1343C27.1015 40.1343 26.0703 39.9485 25.1562 39.7627C24.6406 39.6466 24.125 39.5304 23.6094 39.3679C23.6562 38.8337 23.7031 38.2531 23.7734 37.626C23.8906 36.5343 24.0781 35.1175 24.3594 33.4453C25.039 29.311 27.3828 27.5924 29.5625 27.5924ZM31.8594 6.31744C31.3906 12.9135 26.914 18.9291 24.3594 23.8065C25.1094 19.7187 28.0859 4.45937 30.664 4.45937C31.7187 4.45937 31.8594 6.06196 31.8594 6.31744ZM42.6718 37.8117C42.8594 40.7614 42.9062 44.8492 46.539 44.8492C48.7187 44.8492 51.6484 40.3898 53.4765 36.6505C53.5468 38.973 55.5625 41.226 58.914 41.226C60.9062 41.226 63.2031 40.3898 65.2656 39.0891V33.6311C64.5859 34.0723 63.9297 34.4904 63.2968 34.8388C62.1953 35.466 60.8594 36.0234 59.9218 36.0234C57.3906 36.0234 56.7578 34.5136 56.7578 33.0272C56.7578 32.3072 56.875 31.6337 57.039 31.0994C57.1094 30.7975 57.2031 30.5188 57.3203 30.2401C58.7031 27.1975 59.6875 25.9433 59.6875 24.2479C59.6875 23.1097 58.4922 22.2968 56.6875 22.2968C55.3281 22.2968 54.1562 23.0865 53.9687 23.9459L47.8047 38.5085L47.4765 38.5317L48.3906 23.8298C48.3672 23.0169 47.7578 22.2968 46.7031 22.2968C46.539 22.2968 46.4218 22.32 46.2578 22.3433L43.4453 22.7846C42.4375 22.9471 42.25 24.782 42.25 27.964C42.25 30.4259 42.4375 32.4234 42.625 37.0684L42.6718 37.8117ZM77.1562 40.1575C77.1562 37.742 75.7968 36.395 73.1953 36.395C70.1718 36.395 68.9062 38.5782 68.9062 40.8311C68.9062 43.4788 70.4531 44.5937 72.75 44.5937C77.0859 44.5937 77.1562 40.5524 77.1562 40.1575ZM95.6562 34.9317C93.5937 36.604 90.0781 40.1343 87.8515 40.1343C86.8906 40.1343 86.6562 39.2518 86.6562 37.8582C86.6562 33.5614 89.7968 25.6878 89.7968 23.6207C89.7968 22.8078 89.4218 22.2968 88.1094 22.2968C86.7031 22.2968 84.289 22.9471 83.8437 24.5497C82.7187 29.1949 80.6562 36.0001 80.6562 39.9253C80.6562 42.7356 81.7578 44.5937 85.0156 44.5937C88.625 44.5937 93.4062 41.6904 95.6562 39.6466V34.9317ZM85.1797 15.7704C85.1797 17.9071 86.4687 19.3007 89.2109 19.3007C92.3984 19.3007 93.7578 17.2336 93.7578 15.1432C93.7578 12.8207 91.9531 11.8916 89.7734 11.8916C86.3047 11.8916 85.1797 14.3536 85.1797 15.7704ZM104.829 27.0349C104.922 26.942 104.899 33.6079 105.18 34.8621C104.829 35.7679 104.43 36.5575 103.985 37.2775C103.235 38.5085 102.157 39.693 101.032 39.693C98.8515 39.693 98.4062 38.3227 98.4062 37.0917C98.4062 33.9795 100.68 29.0324 104.829 27.0349ZM120.25 34.6762C119.313 35.4659 118.422 36.1627 117.555 36.7898C116.032 37.8582 114.297 38.9033 113.125 38.9033C111.883 38.9033 111.485 37.2775 111.485 35.5123C111.485 34.1188 111.883 32.3304 112.188 31.4942C115.446 23.6903 119.313 17.2801 120.133 8.50067C120.18 7.92003 120.203 7.36261 120.203 6.8284C120.203 3.27485 119.125 0 116.172 0C110.219 0 105.016 11.6594 104.735 23.5743C97.6094 24.2246 92.7812 31.0066 92.7812 36.9291C92.7812 40.8079 94.7031 44.5937 98.7344 44.5937C101.594 44.5937 104.524 42.6891 106.844 40.4595C108.344 44.0594 111.203 44.5705 112.071 44.5705C113.618 44.5705 115.844 43.4324 117.672 42.3175C118.75 41.644 119.852 40.9007 120.953 40.0414L120.25 34.6762ZM115.844 10.1962C115.539 13.4711 114.18 17.6517 112.914 21.089C112.164 23.0865 111.344 25.0839 110.453 27.1046V26.8724C110.453 25.9433 110.453 23.2955 110.711 20.2298C110.899 17.9768 112.118 5.3884 115.118 5.3884C115.68 5.3884 115.985 5.94582 115.985 7.61809C115.985 8.24518 115.938 9.10454 115.844 10.1962Z" fill="black"/>
</svg>
