<svg width="200" height="40" viewBox="0 0 200 40" fill="none" xmlns="http://www.w3.org/2000/svg">
<path d="M9.69259 2.44519C9.69259 3.45432 9.6624 4.6381 9.60201 5.99654C9.54162 7.31616 9.48123 8.32528 9.42084 9.02391C9.23967 11.0033 9.14908 12.9828 9.14908 14.9622C9.14908 16.4371 9.23967 17.9702 9.42084 19.5615C11.2929 17.8149 13.316 16.5341 15.49 15.7191C17.6641 14.904 20.291 14.4965 23.3709 14.4965C25.6054 14.4965 27.6888 15.1369 29.6213 16.4177C31.5538 17.6985 32.7918 19.1928 33.3353 20.9005C33.5164 22.4142 33.607 24.2578 33.607 26.4313C33.607 27.8286 33.7278 29.6528 33.9694 31.9039C34.0901 32.7578 34.4223 33.5534 34.9658 34.2909C35.5697 35.0283 36.4152 35.397 37.5022 35.397C38.0457 35.397 38.4684 35.3776 38.7704 35.3388C39.1327 35.3 39.4649 35.2806 39.7668 35.2806C40.6123 35.2806 41.186 35.4164 41.4879 35.6881C41.8503 35.9598 42.0314 36.3479 42.0314 36.8525C42.0314 37.784 41.3068 38.4826 39.8574 38.9483C38.408 39.4141 37.0795 39.647 35.8717 39.647C31.5236 39.647 28.5343 38.4826 26.9037 36.1539C25.9979 34.8342 25.4242 33.1265 25.1826 31.0306C24.9411 28.8959 24.8203 26.4119 24.8203 23.5786C24.8203 20.7841 23.3407 19.3869 20.3816 19.3869C18.7511 19.3869 17.0904 19.9496 15.3994 21.0752C13.7689 22.1619 12.4101 23.6174 11.3231 25.4416C10.2361 27.227 9.69259 29.09 9.69259 31.0306L9.78318 37.0854C9.78318 37.9392 9.26986 38.5796 8.24323 39.0066C7.2166 39.3947 6.25036 39.5888 5.34451 39.5888C4.01593 39.5888 2.80813 39.3365 1.72111 38.8319C0.634095 38.2885 0.090585 37.6869 0.090585 37.0271C0.513315 34.1162 0.72468 29.2452 0.72468 22.4142C0.72468 21.1722 0.573705 16.5729 0.271755 8.61638L0 3.26025C0 2.40638 0.6039 1.66894 1.8117 1.04794C3.0195 0.388127 4.37827 0.058222 5.88802 0.058222C7.2166 0.058222 8.18284 0.252283 8.78674 0.640409C9.39064 1.02853 9.69259 1.63013 9.69259 2.44519ZM53.3523 1.97944C55.4659 2.09588 57.3078 2.4646 58.878 3.0856C60.4481 3.66778 61.2332 4.56047 61.2332 5.76366C61.2332 6.65635 60.5689 7.37438 59.2403 7.91775C57.9721 8.42232 56.4322 8.6746 54.6205 8.6746C52.8692 8.6746 51.6614 8.3835 50.9971 7.80132C50.3328 7.21913 50.0006 6.61754 50.0006 5.99654C50.0006 4.83216 50.1818 3.86185 50.5442 3.0856C50.9669 2.30935 51.9029 1.94063 53.3523 1.97944ZM60.5991 27.7703V29.4587C60.5991 30.9724 60.6595 32.4084 60.7803 33.7669C60.9614 35.0865 61.1728 36.4255 61.4143 37.784C61.354 38.1721 60.901 38.5796 60.0556 39.0066C59.2101 39.3947 58.4552 39.5888 57.791 39.5888C56.6435 39.5888 55.4659 39.4529 54.2581 39.1812C53.1107 38.8707 52.4162 38.502 52.1747 38.0751C51.8123 36.8331 51.6312 35.7269 51.6312 34.7566C51.6312 31.574 51.4802 28.0032 51.1782 24.0443C50.9367 20.5512 50.8159 18.106 50.8159 16.7088C50.8159 16.0102 51.3594 15.4086 52.4464 14.904C53.5335 14.3994 54.6809 14.1472 55.8887 14.1472C57.64 14.1472 58.8478 14.3994 59.5121 14.904C60.2367 15.4086 60.5991 16.2042 60.5991 17.291V27.7703ZM91.828 5.06503C90.0163 5.06503 88.8991 6.03535 88.4764 7.97597C88.0536 10.6152 87.8423 12.6141 87.8423 13.9725C89.0501 14.0501 90.3183 14.0889 91.6468 14.0889C92.4923 14.0889 93.5793 14.0501 94.9079 13.9725L97.2631 13.9143C98.4709 13.9143 99.3768 14.0501 99.9807 14.3218C100.585 14.5935 100.887 15.0398 100.887 15.6608C100.887 16.5147 100.434 17.2522 99.5277 17.8732C98.6823 18.4553 97.6858 18.7464 96.5384 18.7464C92.1903 18.7464 89.2614 18.8823 87.7517 19.154C87.7517 21.5215 87.9329 24.8788 88.2952 29.2258L88.4764 32.0785L88.8387 36.6196C88.9595 37.7452 88.7783 38.5408 88.2952 39.0066C87.8725 39.4335 86.9364 39.647 85.4871 39.647C82.8299 39.647 81.1088 38.6184 80.3237 36.5614C79.8406 35.0477 79.4481 32.9324 79.1461 30.2155C78.8442 27.4987 78.6932 25.0729 78.6932 22.9382C78.6932 21.8126 78.7838 20.5318 78.9649 19.0958C78.8442 19.0569 78.512 19.0375 77.9685 19.0375C77.425 19.0375 77.0325 19.0569 76.7909 19.0958C74.9792 19.1734 73.6506 19.2122 72.8052 19.2122C72.2617 19.2122 71.7181 18.9793 71.1746 18.5136C70.6311 18.009 70.3594 17.4074 70.3594 16.7088C70.3594 16.3207 70.5707 15.9713 70.9935 15.6608C71.4162 15.3115 71.9295 15.0593 72.5334 14.904C73.4393 14.5935 74.7376 14.4383 76.4286 14.4383L79.1461 14.4965C79.1461 8.9851 80.1124 5.16207 82.0448 3.02738C83.8565 1.00913 86.8458 0 91.0127 0C93.4283 0 95.6326 0.388125 97.6254 1.16438C98.4709 1.51369 99.105 1.94063 99.5277 2.44519C100.011 2.94975 100.252 3.43491 100.252 3.90066C100.252 4.48285 99.8901 5.08444 99.1654 5.70544C98.5011 6.32644 97.4745 6.63694 96.0855 6.63694C95.542 6.63694 94.8475 6.36525 94.0021 5.82188C93.7001 5.62782 93.368 5.45316 93.0056 5.29791C92.6433 5.14266 92.2507 5.06503 91.828 5.06503ZM118.717 30.332C118.717 31.8069 119.05 32.9518 119.714 33.7669C120.439 34.5431 121.344 34.9313 122.431 34.9313C123.035 34.9313 123.609 34.9118 124.153 34.873C124.696 34.7954 125.24 34.7566 125.783 34.7566C126.387 34.7566 126.9 34.9507 127.323 35.3388C127.806 35.7269 128.048 36.1539 128.048 36.6196C128.048 37.5511 127.353 38.2885 125.964 38.8319C124.636 39.3365 122.824 39.5888 120.529 39.5888C118.899 39.5888 117.238 39.2783 115.547 38.6573C113.916 37.9974 112.558 36.9883 111.471 35.6299C110.384 34.2326 109.84 32.5055 109.84 30.4484C109.84 26.0238 109.961 22.2784 110.202 19.2122C110.504 15.5638 110.655 10.9645 110.655 5.41435C110.655 3.66778 110.806 2.44519 111.108 1.74657C111.471 1.20319 112.044 0.79566 112.829 0.523969C113.675 0.21347 114.55 0.058222 115.456 0.058222C116.362 0.058222 117.147 0.155253 117.812 0.349314C118.536 0.543377 119.019 0.853878 119.261 1.28082C119.502 1.74657 119.653 2.21232 119.714 2.67807C119.835 3.105 119.895 3.726 119.895 4.54107C119.895 6.13238 119.804 7.66547 119.623 9.14035C119.502 10.9257 119.442 12.2259 119.442 13.041C118.959 19.872 118.717 25.6357 118.717 30.332ZM140.104 1.97944C142.218 2.09588 144.06 2.4646 145.63 3.0856C147.2 3.66778 147.985 4.56047 147.985 5.76366C147.985 6.65635 147.321 7.37438 145.992 7.91775C144.724 8.42232 143.184 8.6746 141.372 8.6746C139.621 8.6746 138.413 8.3835 137.749 7.80132C137.085 7.21913 136.752 6.61754 136.752 5.99654C136.752 4.83216 136.934 3.86185 137.296 3.0856C137.719 2.30935 138.655 1.94063 140.104 1.97944ZM147.351 27.7703V29.4587C147.351 30.9724 147.411 32.4084 147.532 33.7669C147.713 35.0865 147.925 36.4255 148.166 37.784C148.166 38.2497 147.743 38.6767 146.898 39.0648C146.052 39.4141 145.267 39.5888 144.543 39.5888C143.395 39.5888 142.218 39.4529 141.01 39.1812C139.862 38.8707 139.168 38.502 138.926 38.0751C138.564 36.8331 138.383 35.7269 138.383 34.7566C138.383 31.574 138.232 28.0032 137.93 24.0443C137.688 20.5512 137.568 18.106 137.568 16.7088C137.568 16.0102 138.111 15.4086 139.198 14.904C140.285 14.3994 141.433 14.1472 142.64 14.1472C144.392 14.1472 145.6 14.3994 146.264 14.904C146.988 15.4086 147.351 16.2042 147.351 17.291V27.7703ZM190.537 13.6814C191.745 13.6814 192.681 13.8755 193.345 14.2636C194.07 14.6129 194.432 15.0593 194.432 15.6026C194.432 15.9908 194.311 16.3983 194.07 16.8252C193.889 17.2133 193.677 17.6209 193.436 18.0478C192.047 20.1437 189.118 23.074 184.649 26.8389C189.239 30.6425 192.953 33.0877 195.791 34.1744C196.032 34.252 196.485 34.3879 197.15 34.5819C197.814 34.776 198.327 35.0089 198.69 35.2806C199.112 35.5523 199.324 35.8628 199.324 36.2121C199.324 37.0659 198.81 37.7646 197.784 38.3079C196.818 38.8125 195.64 39.0648 194.251 39.0648C191.896 39.0648 189.329 38.2303 186.551 36.5614C183.773 34.8536 181.418 33.0683 179.486 31.2053C178.097 32.5637 176.496 33.9221 174.685 35.2806C172.933 36.6002 171.303 37.7258 169.793 38.6573C169.189 39.0842 168.464 39.4141 167.619 39.647C166.834 39.8799 166.049 39.9963 165.264 39.9963C164.177 39.9963 163.21 39.841 162.365 39.5305C161.52 39.22 161.097 38.6767 161.097 37.9004C161.097 37.7064 161.308 37.3959 161.731 36.9689C162.154 36.5032 162.395 36.2315 162.456 36.1539C163.18 35.3388 164.147 34.5043 165.354 33.6504C166.562 32.7578 167.317 32.195 167.619 31.9621C168.344 31.3799 169.129 30.8171 169.974 30.2738C170.457 29.9244 171.182 29.3811 172.148 28.6436C173.114 27.9062 173.779 27.324 174.141 26.8971L170.971 24.1026C169.461 22.977 168.162 22.0843 167.075 21.4245C165.988 20.7259 165.113 20.3766 164.448 20.3766C163.482 20.3766 162.576 20.5512 161.731 20.9005C161.006 21.211 160.282 21.3663 159.557 21.3663C158.772 21.3663 158.168 21.2498 157.745 21.017C157.322 20.7453 157.111 20.4542 157.111 20.1437C157.111 18.8241 157.926 17.6985 159.557 16.767C161.187 15.7967 163.241 15.3115 165.717 15.3115C168.072 15.3115 170.155 15.8355 171.967 16.8834C173.839 17.8926 175.681 19.251 177.493 20.9588C177.734 21.114 178.006 21.3663 178.308 21.7156C178.61 22.0649 178.912 22.356 179.214 22.5889C179.878 21.9679 181.086 20.7647 182.837 18.9793C184.709 16.8446 185.827 15.622 186.189 15.3115C187.457 14.2248 188.906 13.6814 190.537 13.6814Z" fill="white"/>
</svg>
