<svg width="130" height="51" viewBox="0 0 130 51" fill="none" xmlns="http://www.w3.org/2000/svg">
<path d="M14.3997 40.5807H8.79648V17.546H0.352539V11.7823H22.824V17.546H14.3997V40.5807ZM31.5423 13.2282C31.5423 13.737 31.4444 14.2123 31.2483 14.6541C31.0656 15.0959 30.811 15.4842 30.4844 15.8189C30.1578 16.1402 29.7726 16.4013 29.3285 16.6021C28.8973 16.7895 28.4338 16.8833 27.9373 16.8833C27.4411 16.8833 26.9709 16.7895 26.5268 16.6021C26.0958 16.4013 25.717 16.1402 25.3905 15.8189C25.0771 15.4842 24.8224 15.0959 24.6264 14.6541C24.4436 14.2123 24.3522 13.737 24.3522 13.2282C24.3522 12.7329 24.4436 12.2643 24.6264 11.8225C24.8224 11.3673 25.0771 10.979 25.3905 10.6577C25.717 10.323 26.0958 10.0619 26.5268 9.87447C26.9709 9.67365 27.4411 9.57324 27.9373 9.57324C28.4338 9.57324 28.8973 9.67365 29.3285 9.87447C29.7726 10.0619 30.1578 10.323 30.4844 10.6577C30.811 10.979 31.0656 11.3673 31.2483 11.8225C31.4444 12.2643 31.5423 12.7329 31.5423 13.2282ZM30.6216 40.5807H25.2338V19.0723H30.6216V40.5807ZM53.0538 23.3498L49.1353 27.3864C48.9395 26.8241 48.6718 26.3221 48.3321 25.8802C47.9926 25.4251 47.6074 25.0435 47.1763 24.7355C46.7584 24.4276 46.3013 24.1933 45.8048 24.0326C45.3086 23.872 44.7991 23.7917 44.2767 23.7917C43.5453 23.7917 42.8531 23.9456 42.2001 24.2536C41.56 24.5615 40.9983 24.9966 40.5152 25.5589C40.045 26.1078 39.6726 26.7639 39.3985 27.5271C39.1243 28.2902 38.9871 29.1336 38.9871 30.0574C38.9871 30.807 39.1243 31.5101 39.3985 32.1662C39.6726 32.8221 40.045 33.3979 40.5152 33.8931C40.9983 34.3885 41.56 34.7768 42.2001 35.0579C42.8531 35.3392 43.5453 35.4796 44.2767 35.4796C44.7991 35.4796 45.302 35.4061 45.7853 35.2588C46.2687 35.1116 46.7191 34.904 47.1372 34.6361C47.5681 34.3551 47.9469 34.0203 48.2735 33.632C48.6129 33.2304 48.8874 32.7886 49.0963 32.3066L53.0145 36.3433C52.5183 37.0663 51.9435 37.7156 51.2905 38.2911C50.6504 38.8669 49.9517 39.3556 49.1942 39.7573C48.4498 40.1589 47.6596 40.4603 46.8237 40.661C46.0009 40.8751 45.1519 40.9823 44.2767 40.9823C42.8009 40.9823 41.41 40.701 40.1038 40.1389C38.8108 39.5631 37.6745 38.78 36.6949 37.7891C35.7282 36.7984 34.9643 35.6402 34.4025 34.3148C33.8411 32.9893 33.5602 31.5704 33.5602 30.0574C33.5602 28.4106 33.8411 26.871 34.4025 25.4384C34.9643 24.0059 35.7282 22.7608 36.6949 21.7031C37.6745 20.632 38.8108 19.7885 40.1038 19.1727C41.41 18.5568 42.8009 18.2489 44.2767 18.2489C45.1519 18.2489 46.0073 18.3627 46.8432 18.5903C47.6922 18.8179 48.4955 19.1526 49.253 19.5944C50.0237 20.0228 50.7288 20.5517 51.3689 21.1809C52.0218 21.8102 52.5836 22.5332 53.0538 23.3498ZM61.0667 40.5807H55.679V10.5171H61.0667V29.475L69.0403 19.1124H75.1923L68.2373 28.0692L75.1923 40.5807H69.0403L64.7891 32.7686L61.0667 37.8294V40.5807ZM83.6166 13.2282C83.6166 13.737 83.5185 14.2123 83.3227 14.6541C83.1397 15.0959 82.8851 15.4842 82.5587 15.8189C82.2321 16.1402 81.8467 16.4013 81.4026 16.6021C80.9717 16.7895 80.5081 16.8833 80.0117 16.8833C79.5155 16.8833 79.0452 16.7895 78.6012 16.6021C78.17 16.4013 77.7913 16.1402 77.4649 15.8189C77.1514 15.4842 76.8968 15.0959 76.7007 14.6541C76.518 14.2123 76.4265 13.737 76.4265 13.2282C76.4265 12.7329 76.518 12.2643 76.7007 11.8225C76.8968 11.3673 77.1514 10.979 77.4649 10.6577C77.7913 10.323 78.17 10.0619 78.6012 9.87447C79.0452 9.67365 79.5155 9.57324 80.0117 9.57324C80.5081 9.57324 80.9717 9.67365 81.4026 9.87447C81.8467 10.0619 82.2321 10.323 82.5587 10.6577C82.8851 10.979 83.1397 11.3673 83.3227 11.8225C83.5185 12.2643 83.6166 12.7329 83.6166 13.2282ZM82.6957 40.5807H77.3082V19.0723H82.6957V40.5807ZM97.3111 40.5807C96.018 40.5807 94.8033 40.3331 93.667 39.8376C92.5307 39.329 91.5317 38.6394 90.6695 37.7691C89.8205 36.8854 89.1478 35.8612 88.6516 34.6965C88.1683 33.5317 87.9267 32.2866 87.9267 30.9611V24.5749H85.3211V19.1124H87.9267V10.5171H93.2556V19.1124H101.366V24.5749H93.2556V30.9611C93.2556 31.5369 93.36 32.079 93.5691 32.5879C93.778 33.0831 94.0653 33.5183 94.431 33.8931C94.7969 34.2682 95.2278 34.5692 95.724 34.7968C96.2205 35.0112 96.7493 35.1182 97.3111 35.1182H101.366V40.5807H97.3111ZM120.762 40.5807H103.267L112.103 24.5749H103.267V19.1124H120.762L111.926 35.1182H120.762V40.5807Z" fill="#1D4ED8"/>
<path d="M127.795 23.9221C127.79 23.9197 127.786 23.9183 127.782 23.9162L126.032 22.88C125.923 23.0072 125.774 23.0918 125.611 23.1193C125.448 23.1469 125.281 23.1157 125.138 23.031C124.995 22.9463 124.885 22.8133 124.826 22.6547C124.768 22.4961 124.765 22.3218 124.819 22.1613L123.057 21.118C123.009 21.0901 122.953 21.0826 122.9 21.097C122.848 21.1115 122.803 21.1469 122.775 21.1953L117.545 30.4828L117.544 30.4833C117.531 30.5072 117.522 30.5338 117.518 30.5612C117.515 30.5889 117.517 30.6166 117.524 30.6435C117.531 30.6703 117.543 30.6953 117.559 30.7175C117.576 30.7394 117.596 30.7578 117.62 30.7718L119.382 31.8137C119.491 31.6868 119.64 31.6023 119.803 31.5746C119.966 31.5472 120.133 31.5785 120.276 31.6629C120.419 31.7476 120.529 31.8803 120.587 32.0386C120.646 32.1968 120.649 32.3709 120.596 32.5313L122.336 33.5598C122.343 33.5653 122.35 33.571 122.357 33.5757C122.381 33.5897 122.407 33.5984 122.434 33.6023C122.46 33.6058 122.488 33.6039 122.514 33.5968C122.54 33.5897 122.564 33.5773 122.586 33.5603C122.607 33.5436 122.625 33.5225 122.639 33.4984V33.4986L127.87 24.2105C127.884 24.1865 127.892 24.16 127.896 24.1325C127.899 24.105 127.898 24.0771 127.89 24.0503C127.884 24.0235 127.871 23.9985 127.855 23.9764C127.839 23.9544 127.818 23.936 127.795 23.9221ZM126.295 24.6431L122.217 31.8834C122.203 31.9075 122.185 31.9286 122.164 31.9453C122.142 31.9623 122.118 31.9747 122.092 31.9818C122.066 31.9889 122.038 31.9908 122.012 31.9873C121.985 31.9837 121.959 31.9747 121.935 31.9607L119.195 30.3388C119.172 30.3248 119.151 30.3065 119.135 30.2845C119.118 30.2626 119.106 30.2374 119.099 30.2108C119.092 30.1839 119.09 30.1559 119.094 30.1285C119.098 30.1011 119.106 30.0745 119.12 30.0506L123.198 22.8103C123.225 22.7619 123.27 22.7265 123.323 22.712C123.375 22.6976 123.431 22.7051 123.479 22.7331L126.219 24.3551C126.243 24.3689 126.263 24.3873 126.28 24.4093C126.296 24.4313 126.308 24.4563 126.315 24.4831C126.322 24.5099 126.324 24.5377 126.321 24.5652C126.317 24.5927 126.308 24.6191 126.295 24.6431Z" fill="#1D4ED8"/>
<path d="M124.098 27.1533L123.23 26.9878L123.108 26.1371C123.106 26.1246 123.101 26.1129 123.092 26.1038C123.084 26.0946 123.072 26.0884 123.06 26.0861C123.048 26.0837 123.035 26.0852 123.024 26.0905C123.013 26.0957 123.004 26.1045 122.997 26.1154L122.576 26.8628L121.73 26.7015C121.718 26.6992 121.705 26.7008 121.694 26.7061C121.683 26.7114 121.673 26.7201 121.667 26.7311C121.661 26.742 121.658 26.7546 121.659 26.7672C121.66 26.7798 121.665 26.7918 121.673 26.8014L122.233 27.4724L121.812 28.2196C121.806 28.2308 121.803 28.2434 121.804 28.256C121.805 28.2689 121.811 28.281 121.819 28.2906C121.827 28.3002 121.838 28.3067 121.85 28.3098C121.862 28.3128 121.874 28.312 121.886 28.3073L122.665 27.9903L123.239 28.6783C123.247 28.6876 123.258 28.6945 123.27 28.6975C123.282 28.7005 123.294 28.6997 123.306 28.6953C123.317 28.6909 123.327 28.6829 123.334 28.6725C123.341 28.6621 123.345 28.6498 123.344 28.6372L123.329 27.7148L124.116 27.2667C124.127 27.2605 124.136 27.2511 124.141 27.2398C124.146 27.2284 124.148 27.2157 124.147 27.2032C124.144 27.1908 124.138 27.1794 124.13 27.1705C124.121 27.1615 124.11 27.1555 124.098 27.1533Z" fill="#1D4ED8"/>
</svg>
